<svg xmlns="http://www.w3.org/2000/svg" viewBox="0 0 37.22 37.22"><defs><style>.cls-1{fill:#fff;}</style></defs><title>ico-github</title><g id="Layer_2" data-name="Layer 2"><g id="Layer_6" data-name="Layer 6"><path class="cls-1" d="M23.44,31.44a7,7,0,0,0-.23-2,3.58,3.58,0,0,0-1-1.73s0,0-.05-.07l1-.14a10.85,10.85,0,0,0,4.49-1.65,6.72,6.72,0,0,0,2.7-3.6A12.38,12.38,0,0,0,31,17.35,7.11,7.11,0,0,0,29.11,13l-.1-.12c.1-.37.22-.72.29-1.08A6.3,6.3,0,0,0,29.2,9c-.1-.38-.24-.76-.36-1.14a.23.23,0,0,0-.21-.18,2.63,2.63,0,0,0-1.15.08,12.59,12.59,0,0,0-3.14,1.39l-.72.46a.35.35,0,0,1-.34.05,18,18,0,0,0-9.29,0,.45.45,0,0,1-.42-.06A13.47,13.47,0,0,0,9.86,7.83a3,3,0,0,0-.72-.15,4.22,4.22,0,0,0-.71,0,6.88,6.88,0,0,0-.2,5.18L8.11,13a7.28,7.28,0,0,0-1.8,3.91,11.48,11.48,0,0,0,0,2,11.12,11.12,0,0,0,.48,2.86,13.72,13.72,0,0,0,.52,1.34,6.44,6.44,0,0,0,2.69,3,10.7,10.7,0,0,0,3.84,1.36l1.25.18,0,.07a4,4,0,0,0-1.08,2.08.09.09,0,0,0,0,.05c0,.34-.19.48-.49.58a5.63,5.63,0,0,1-2.54.29,3.25,3.25,0,0,1-2.09-1.25,5.2,5.2,0,0,1-.54-.76,4.39,4.39,0,0,0-2-1.83,2.48,2.48,0,0,0-1.47-.2H4.66c-.31.08-.37.23-.21.5a1.74,1.74,0,0,0,.68.64,3.45,3.45,0,0,1,1,.88,7.09,7.09,0,0,1,1.11,2,3.47,3.47,0,0,0,2.62,2.24,8.94,8.94,0,0,0,3.22.15l.67-.11a1.41,1.41,0,0,1,0,.18l0,3.33s0,.08,0,.12a18.75,18.75,0,0,0,9.64,0V31.44Z"/><path d="M37.22,18.61a18.61,18.61,0,1,0-23.42,18s0-.08,0-.12l0-3.33a1.41,1.41,0,0,0,0-.18l-.67.11a8.94,8.94,0,0,1-3.22-.15,3.47,3.47,0,0,1-2.62-2.24,7.09,7.09,0,0,0-1.11-2,3.45,3.45,0,0,0-1-.88,1.74,1.74,0,0,1-.68-.64c-.16-.27-.1-.42.21-.5h.09a2.48,2.48,0,0,1,1.47.2,4.39,4.39,0,0,1,2,1.83,5.2,5.2,0,0,0,.54.76,3.25,3.25,0,0,0,2.09,1.25,5.63,5.63,0,0,0,2.54-.29c.3-.1.5-.24.49-.58a.09.09,0,0,1,0-.05A4,4,0,0,1,15,27.72l0-.07-1.25-.18A10.7,10.7,0,0,1,10,26.11a6.44,6.44,0,0,1-2.69-3,13.72,13.72,0,0,1-.52-1.34A11.12,11.12,0,0,1,6.26,19a11.48,11.48,0,0,1,0-2A7.28,7.28,0,0,1,8.11,13l.12-.14a6.88,6.88,0,0,1,.2-5.18,4.22,4.22,0,0,1,.71,0,3,3,0,0,1,.72.15A13.47,13.47,0,0,1,13.57,9.6a.45.45,0,0,0,.42.06,18,18,0,0,1,9.29,0,.35.35,0,0,0,.34-.05l.72-.46a12.59,12.59,0,0,1,3.14-1.39,2.63,2.63,0,0,1,1.15-.08.23.23,0,0,1,.21.18c.12.38.26.76.36,1.14a6.3,6.3,0,0,1,.1,2.8c-.07.36-.19.71-.29,1.08l.1.12A7.11,7.11,0,0,1,31,17.35a12.38,12.38,0,0,1-.61,4.91,6.72,6.72,0,0,1-2.7,3.6,10.85,10.85,0,0,1-4.49,1.65l-1,.14s0,.06.05.07a3.58,3.58,0,0,1,1,1.73,7,7,0,0,1,.23,2v5.15A18.62,18.62,0,0,0,37.22,18.61Z"/></g></g></svg>