<svg xmlns="http://www.w3.org/2000/svg" viewBox="0 0 20.4 19.23"><title>ico-text</title><g id="Layer_2" data-name="Layer 2"><g id="Layer_6" data-name="Layer 6"><path d="M2.27,18.73A3.85,3.85,0,0,1,.6,17.27,4.11,4.11,0,0,1,0,15a3.86,3.86,0,0,1,.45-1.85,4.12,4.12,0,0,1,1.24-1.42A12.54,12.54,0,0,1,3.4,10.7a15,15,0,0,1,2-.89A21.61,21.61,0,0,0,9,8.12,3.67,3.67,0,0,0,10.27,7a2.49,2.49,0,0,0,.44-1.4,4,4,0,0,0-.93-2.87,3.62,3.62,0,0,0-2.7-1,7,7,0,0,0-2.3.38A4.1,4.1,0,0,0,3.1,3.22a2.52,2.52,0,0,1,1.71.57,1.79,1.79,0,0,1,.66,1.4,2.51,2.51,0,0,1-.32,1.26,2.22,2.22,0,0,1-.86.86,2.42,2.42,0,0,1-1.19.3,2.4,2.4,0,0,1-1.78-.73,2.77,2.77,0,0,1-.72-2,3,3,0,0,1,.46-1.5A6.16,6.16,0,0,1,4.68.49,9.66,9.66,0,0,1,7.82,0a9.58,9.58,0,0,1,2.55.31,6.47,6.47,0,0,1,2.06,1,4.38,4.38,0,0,1,1.44,1.93,7.4,7.4,0,0,1,.5,2.87V14a4.48,4.48,0,0,0,.18,1.32,2.58,2.58,0,0,0,.62,1,1.66,1.66,0,0,0,1.21.5c1.44,0,2.17-1,2.17-3V11.24H20.4v2.2a10.38,10.38,0,0,1-.35,2.87,3.88,3.88,0,0,1-1,1.79,4.09,4.09,0,0,1-1.47.86,5.9,5.9,0,0,1-1.89.27,5.08,5.08,0,0,1-2.15-.46,4.18,4.18,0,0,1-1.66-1.42A4.53,4.53,0,0,1,11,15a6.45,6.45,0,0,1-1.44,2.2,7.21,7.21,0,0,1-2.23,1.51,6.35,6.35,0,0,1-2.59.55A5.78,5.78,0,0,1,2.27,18.73Zm5.67-2.62a6.21,6.21,0,0,0,2-1.7,3.21,3.21,0,0,0,.78-2V8.82a12.4,12.4,0,0,1-2.34,1.82A22.43,22.43,0,0,1,5.88,12a4.42,4.42,0,0,0-1.63,1.16,2.51,2.51,0,0,0-.62,1.7,1.87,1.87,0,0,0,.52,1.39,2,2,0,0,0,1.47.52A4.88,4.88,0,0,0,7.94,16.11Z"/></g></g></svg>