<svg xmlns="http://www.w3.org/2000/svg" viewBox="0 0 37.22 37.22"><defs><style>.cls-1{fill:#fff;}</style></defs><title>ico-link</title><g id="Layer_2" data-name="Layer 2"><g id="Layer_6" data-name="Layer 6"><circle cx="18.61" cy="18.61" r="18.61"/><path class="cls-1" d="M27.58,14.67l-.09.54a4.75,4.75,0,0,1-1.32,2.47C25,18.85,23.85,20,22.68,21.17a4.86,4.86,0,0,1-7.49-.87,1,1,0,0,1-.08-.15l.1-.12,1.43-1.42c.09-.09.19-.15.31-.25l.07.2a2.43,2.43,0,0,0,3.93.89c.31-.28.59-.59.89-.88.85-.85,1.7-1.71,2.56-2.56a2.44,2.44,0,0,0,.71-1.35,2.4,2.4,0,0,0-1.89-2.78,2.34,2.34,0,0,0-2.23.67l-1.08,1.07a1.71,1.71,0,0,0-.11.14,6.2,6.2,0,0,0-3.11-.34.69.69,0,0,1,.1-.12c.84-.84,1.67-1.69,2.52-2.52a4.69,4.69,0,0,1,2.88-1.36l.11,0h.83l.47.07a4.86,4.86,0,0,1,3.92,4l.06.35Z"/><path class="cls-1" d="M9.25,22.43c0-.18.06-.36.1-.54a4.73,4.73,0,0,1,1.34-2.49L14.11,16a4.59,4.59,0,0,1,2.94-1.4,4.72,4.72,0,0,1,4.6,2.22l.06.12s0,0,0,0l-.07.08-1.47,1.47a2.43,2.43,0,0,1-.29.22l-.07-.19a2.34,2.34,0,0,0-1.72-1.49,2.31,2.31,0,0,0-2.22.61c-.31.29-.61.6-.92.91l-2.53,2.54a2.31,2.31,0,0,0-.7,1.33,2.42,2.42,0,0,0,1.89,2.79,2.37,2.37,0,0,0,2.23-.67l1.07-1.08.12-.14a6.32,6.32,0,0,0,3.11.35l-.11.12-2.43,2.43a4.88,4.88,0,0,1-2.81,1.43l-.26,0h-.83l-.48-.08a4.86,4.86,0,0,1-3.91-4c0-.12-.05-.24-.07-.36Z"/></g></g></svg>